<svg width="33" height="32" viewBox="0 0 33 32" fill="none" xmlns="http://www.w3.org/2000/svg">
<path d="M4.5 4H4.8578C5.4895 4 5.80591 4 6.06356 4.11397C6.29072 4.21446 6.48494 4.37623 6.625 4.58138C6.78359 4.81367 6.84086 5.12386 6.95516 5.74303L9.83338 21.3334L23.7291 21.3333C24.3333 21.3333 24.6364 21.3333 24.8867 21.2266C25.1078 21.1322 25.2985 20.9795 25.4401 20.7853C25.6002 20.5656 25.6681 20.2716 25.8037 19.6841L25.8047 19.6799L27.897 10.6133L27.8974 10.6114C28.1031 9.72021 28.2062 9.27354 28.093 8.92318C27.9937 8.61576 27.7847 8.35512 27.5075 8.18923C27.1913 8 26.7344 8 25.8183 8H7.83333M24.5 28C23.7636 28 23.1667 27.403 23.1667 26.6667C23.1667 25.9303 23.7636 25.3333 24.5 25.3333C25.2364 25.3333 25.8333 25.9303 25.8333 26.6667C25.8333 27.403 25.2364 28 24.5 28ZM11.1667 28C10.4303 28 9.83333 27.403 9.83333 26.6667C9.83333 25.9303 10.4303 25.3333 11.1667 25.3333C11.903 25.3333 12.5 25.9303 12.5 26.6667C12.5 27.403 11.903 28 11.1667 28Z" stroke="#999999" stroke-width="2" stroke-linecap="round" stroke-linejoin="round"/>
</svg>
