<svg width="32" height="32" viewBox="0 0 32 32" fill="none" xmlns="http://www.w3.org/2000/svg">
<path d="M4.13318 13C4.39545 13 4.64697 12.8946 4.83243 12.7071C5.01788 12.5196 5.12206 12.2652 5.12206 12V6C5.12206 5.73478 5.22625 5.48043 5.4117 5.29289C5.59716 5.10536 5.84868 5 6.11095 5H12.0443C12.3066 5 12.5581 4.89464 12.7435 4.70711C12.929 4.51957 13.0332 4.26522 13.0332 4C13.0332 3.73478 12.929 3.48043 12.7435 3.29289C12.5581 3.10536 12.3066 3 12.0443 3H6.11095C5.32414 3 4.56956 3.31607 4.0132 3.87868C3.45685 4.44129 3.14429 5.20435 3.14429 6V12C3.14429 12.2652 3.24847 12.5196 3.43393 12.7071C3.61938 12.8946 3.87091 13 4.13318 13Z" fill="#999999"/>
<path d="M25.8888 3H19.9554C19.6932 3 19.4416 3.10536 19.2562 3.29289C19.0707 3.48043 18.9666 3.73478 18.9666 4C18.9666 4.26522 19.0707 4.51957 19.2562 4.70711C19.4416 4.89464 19.6932 5 19.9554 5H25.8888C26.151 5 26.4026 5.10536 26.588 5.29289C26.7735 5.48043 26.8777 5.73478 26.8777 6V12C26.8777 12.2652 26.9818 12.5196 27.1673 12.7071C27.3528 12.8946 27.6043 13 27.8666 13C28.1288 13 28.3804 12.8946 28.5658 12.7071C28.7513 12.5196 28.8554 12.2652 28.8554 12V6C28.8554 5.20435 28.5429 4.44129 27.9865 3.87868C27.4302 3.31607 26.6756 3 25.8888 3Z" fill="#999999"/>
<path d="M27.8666 19C27.6043 19 27.3528 19.1054 27.1673 19.2929C26.9818 19.4804 26.8777 19.7348 26.8777 20V26C26.8777 26.2652 26.7735 26.5196 26.588 26.7071C26.4026 26.8946 26.151 27 25.8888 27H19.9554C19.6932 27 19.4416 27.1054 19.2562 27.2929C19.0707 27.4804 18.9666 27.7348 18.9666 28C18.9666 28.2652 19.0707 28.5196 19.2562 28.7071C19.4416 28.8946 19.6932 29 19.9554 29H25.8888C26.6756 29 27.4302 28.6839 27.9865 28.1213C28.5429 27.5587 28.8554 26.7956 28.8554 26V20C28.8554 19.7348 28.7513 19.4804 28.5658 19.2929C28.3804 19.1054 28.1288 19 27.8666 19Z" fill="#999999"/>
<path d="M12.0443 27H6.11095C5.84868 27 5.59716 26.8946 5.4117 26.7071C5.22625 26.5196 5.12206 26.2652 5.12206 26V20C5.12206 19.7348 5.01788 19.4804 4.83243 19.2929C4.64697 19.1054 4.39545 19 4.13318 19C3.87091 19 3.61938 19.1054 3.43393 19.2929C3.24847 19.4804 3.14429 19.7348 3.14429 20V26C3.14429 26.7956 3.45685 27.5587 4.0132 28.1213C4.56956 28.6839 5.32414 29 6.11095 29H12.0443C12.3066 29 12.5581 28.8946 12.7435 28.7071C12.929 28.5196 13.0332 28.2652 13.0332 28C13.0332 27.7348 12.929 27.4804 12.7435 27.2929C12.5581 27.1054 12.3066 27 12.0443 27Z" fill="#999999"/>
<path d="M8.08862 11V21C8.08862 21.2652 8.19281 21.5196 8.37826 21.7071C8.56371 21.8946 8.81524 22 9.07751 22C9.33978 22 9.59131 21.8946 9.77676 21.7071C9.96221 21.5196 10.0664 21.2652 10.0664 21V11C10.0664 10.7348 9.96221 10.4804 9.77676 10.2929C9.59131 10.1054 9.33978 10 9.07751 10C8.81524 10 8.56371 10.1054 8.37826 10.2929C8.19281 10.4804 8.08862 10.7348 8.08862 11Z" fill="#999999"/>
<path d="M12.5387 10C12.2764 10 12.0249 10.1054 11.8394 10.2929C11.654 10.4804 11.5498 10.7348 11.5498 11V21C11.5498 21.2652 11.654 21.5196 11.8394 21.7071C12.0249 21.8946 12.2764 22 12.5387 22C12.801 22 13.0525 21.8946 13.2379 21.7071C13.4234 21.5196 13.5276 21.2652 13.5276 21V11C13.5276 10.7348 13.4234 10.4804 13.2379 10.2929C13.0525 10.1054 12.801 10 12.5387 10Z" fill="#999999"/>
<path d="M15.9999 10C15.7376 10 15.4861 10.1054 15.3006 10.2929C15.1152 10.4804 15.011 10.7348 15.011 11V16C15.011 16.2652 15.1152 16.5196 15.3006 16.7071C15.4861 16.8946 15.7376 17 15.9999 17C16.2621 17 16.5137 16.8946 16.6991 16.7071C16.8846 16.5196 16.9888 16.2652 16.9888 16V11C16.9888 10.7348 16.8846 10.4804 16.6991 10.2929C16.5137 10.1054 16.2621 10 15.9999 10Z" fill="#999999"/>
<path d="M15.9999 18C15.7376 18 15.4861 18.1054 15.3006 18.2929C15.1152 18.4804 15.011 18.7348 15.011 19V21C15.011 21.2652 15.1152 21.5196 15.3006 21.7071C15.4861 21.8946 15.7376 22 15.9999 22C16.2621 22 16.5137 21.8946 16.6991 21.7071C16.8846 21.5196 16.9888 21.2652 16.9888 21V19C16.9888 18.7348 16.8846 18.4804 16.6991 18.2929C16.5137 18.1054 16.2621 18 15.9999 18Z" fill="#999999"/>
<path d="M20.4499 21V11C20.4499 10.7348 20.3458 10.4804 20.1603 10.2929C19.9749 10.1054 19.7233 10 19.4611 10C19.1988 10 18.9473 10.1054 18.7618 10.2929C18.5764 10.4804 18.4722 10.7348 18.4722 11V21C18.4722 21.2652 18.5764 21.5196 18.7618 21.7071C18.9473 21.8946 19.1988 22 19.4611 22C19.7233 22 19.9749 21.8946 20.1603 21.7071C20.3458 21.5196 20.4499 21.2652 20.4499 21Z" fill="#999999"/>
<path d="M21.9331 21C21.9331 21.2652 22.0373 21.5196 22.2227 21.7071C22.4082 21.8946 22.6597 22 22.922 22C23.1843 22 23.4358 21.8946 23.6212 21.7071C23.8067 21.5196 23.9109 21.2652 23.9109 21V15C23.9109 14.7348 23.8067 14.4804 23.6212 14.2929C23.4358 14.1054 23.1843 14 22.922 14C22.6597 14 22.4082 14.1054 22.2227 14.2929C22.0373 14.4804 21.9331 14.7348 21.9331 15V21Z" fill="#999999"/>
<path d="M22.922 13C23.1843 13 23.4358 12.8946 23.6212 12.7071C23.8067 12.5196 23.9109 12.2652 23.9109 12V11C23.9109 10.7348 23.8067 10.4804 23.6212 10.2929C23.4358 10.1054 23.1843 10 22.922 10C22.6597 10 22.4082 10.1054 22.2227 10.2929C22.0373 10.4804 21.9331 10.7348 21.9331 11V12C21.9331 12.2652 22.0373 12.5196 22.2227 12.7071C22.4082 12.8946 22.6597 13 22.922 13Z" fill="#999999"/>
</svg>
