<svg width="16" height="17" viewBox="0 0 16 17" fill="none" xmlns="http://www.w3.org/2000/svg">
<path d="M2 2.5H2.1789C2.49475 2.5 2.65295 2.5 2.78178 2.55699C2.89536 2.60723 2.99247 2.68812 3.0625 2.79069C3.1418 2.90684 3.17043 3.06193 3.22758 3.37152L4.66669 11.1667L11.6145 11.1667C11.9167 11.1667 12.0682 11.1667 12.1934 11.1133C12.3039 11.0661 12.3992 10.9897 12.4701 10.8926C12.5501 10.7828 12.584 10.6358 12.6518 10.3421L12.6523 10.34L13.6985 5.80664L13.6987 5.80569C13.8015 5.3601 13.8531 5.13677 13.7965 4.96159C13.7468 4.80788 13.6423 4.67756 13.5037 4.59461C13.3456 4.5 13.1172 4.5 12.6591 4.5H3.66667M12 14.5C11.6318 14.5 11.3333 14.2015 11.3333 13.8333C11.3333 13.4651 11.6318 13.1667 12 13.1667C12.3682 13.1667 12.6667 13.4651 12.6667 13.8333C12.6667 14.2015 12.3682 14.5 12 14.5ZM5.33333 14.5C4.96514 14.5 4.66667 14.2015 4.66667 13.8333C4.66667 13.4651 4.96514 13.1667 5.33333 13.1667C5.70152 13.1667 6 13.4651 6 13.8333C6 14.2015 5.70152 14.5 5.33333 14.5Z" stroke="#999999" stroke-width="1.2" stroke-linecap="round" stroke-linejoin="round"/>
</svg>
